<mxfile host="app.diagrams.net" modified="2023-12-05T11:49:22.488Z" agent="Mozilla/5.0 (Windows NT 10.0; Win64; x64) AppleWebKit/537.36 (KHTML, like Gecko) Chrome/119.0.0.0 Safari/537.36 Edg/119.0.0.0" etag="T9YAnAaZmLsoK8Nwenvb" version="22.1.5" type="github">
  <diagram name="第 1 页" id="YYiJ1lcF86XYGmvxzPsX">
    <mxGraphModel dx="1311" dy="847" grid="0" gridSize="10" guides="1" tooltips="1" connect="1" arrows="1" fold="1" page="0" pageScale="1" pageWidth="827" pageHeight="1169" math="0" shadow="0">
      <root>
        <mxCell id="0" />
        <mxCell id="1" parent="0" />
        <mxCell id="UXUyvyDJoPG__9SWJVPV-1" value="ATMTransaction" style="swimlane;fontStyle=0;childLayout=stackLayout;horizontal=1;startSize=26;fillColor=none;horizontalStack=0;resizeParent=1;resizeParentMax=0;resizeLast=0;collapsible=1;marginBottom=0;whiteSpace=wrap;html=1;flipH=1;" vertex="1" parent="1">
          <mxGeometry x="322" y="37" width="161" height="224" as="geometry" />
        </mxCell>
        <mxCell id="UXUyvyDJoPG__9SWJVPV-2" value="+ BankId: String" style="text;strokeColor=none;fillColor=none;align=left;verticalAlign=top;spacingLeft=4;spacingRight=4;overflow=hidden;rotatable=0;points=[[0,0.5],[1,0.5]];portConstraint=eastwest;whiteSpace=wrap;html=1;" vertex="1" parent="UXUyvyDJoPG__9SWJVPV-1">
          <mxGeometry y="26" width="161" height="26" as="geometry" />
        </mxCell>
        <mxCell id="UXUyvyDJoPG__9SWJVPV-3" value="+ ATMId: String" style="text;strokeColor=none;fillColor=none;align=left;verticalAlign=top;spacingLeft=4;spacingRight=4;overflow=hidden;rotatable=0;points=[[0,0.5],[1,0.5]];portConstraint=eastwest;whiteSpace=wrap;html=1;" vertex="1" parent="UXUyvyDJoPG__9SWJVPV-1">
          <mxGeometry y="52" width="161" height="26" as="geometry" />
        </mxCell>
        <mxCell id="UXUyvyDJoPG__9SWJVPV-4" value="+ Date: int64" style="text;strokeColor=none;fillColor=none;align=left;verticalAlign=top;spacingLeft=4;spacingRight=4;overflow=hidden;rotatable=0;points=[[0,0.5],[1,0.5]];portConstraint=eastwest;whiteSpace=wrap;html=1;" vertex="1" parent="UXUyvyDJoPG__9SWJVPV-1">
          <mxGeometry y="78" width="161" height="26" as="geometry" />
        </mxCell>
        <mxCell id="UXUyvyDJoPG__9SWJVPV-21" value="+ time: int64" style="text;strokeColor=none;fillColor=none;align=left;verticalAlign=top;spacingLeft=4;spacingRight=4;overflow=hidden;rotatable=0;points=[[0,0.5],[1,0.5]];portConstraint=eastwest;whiteSpace=wrap;html=1;" vertex="1" parent="UXUyvyDJoPG__9SWJVPV-1">
          <mxGeometry y="104" width="161" height="26" as="geometry" />
        </mxCell>
        <mxCell id="UXUyvyDJoPG__9SWJVPV-22" value="+ TranscationType:String&amp;nbsp; attribute" style="text;strokeColor=none;fillColor=none;align=left;verticalAlign=top;spacingLeft=4;spacingRight=4;overflow=hidden;rotatable=0;points=[[0,0.5],[1,0.5]];portConstraint=eastwest;whiteSpace=wrap;html=1;" vertex="1" parent="UXUyvyDJoPG__9SWJVPV-1">
          <mxGeometry y="130" width="161" height="42" as="geometry" />
        </mxCell>
        <mxCell id="UXUyvyDJoPG__9SWJVPV-24" value="+ item: attribute" style="text;strokeColor=none;fillColor=none;align=left;verticalAlign=top;spacingLeft=4;spacingRight=4;overflow=hidden;rotatable=0;points=[[0,0.5],[1,0.5]];portConstraint=eastwest;whiteSpace=wrap;html=1;" vertex="1" parent="UXUyvyDJoPG__9SWJVPV-1">
          <mxGeometry y="172" width="161" height="26" as="geometry" />
        </mxCell>
        <mxCell id="UXUyvyDJoPG__9SWJVPV-23" value="+ Status: int" style="text;strokeColor=none;fillColor=none;align=left;verticalAlign=top;spacingLeft=4;spacingRight=4;overflow=hidden;rotatable=0;points=[[0,0.5],[1,0.5]];portConstraint=eastwest;whiteSpace=wrap;html=1;" vertex="1" parent="UXUyvyDJoPG__9SWJVPV-1">
          <mxGeometry y="198" width="161" height="26" as="geometry" />
        </mxCell>
        <mxCell id="UXUyvyDJoPG__9SWJVPV-5" value="WithdrawTransaction" style="swimlane;fontStyle=0;childLayout=stackLayout;horizontal=1;startSize=26;fillColor=none;horizontalStack=0;resizeParent=1;resizeParentMax=0;resizeLast=0;collapsible=1;marginBottom=0;whiteSpace=wrap;html=1;flipH=1;" vertex="1" parent="1">
          <mxGeometry x="27" y="379" width="164" height="78" as="geometry" />
        </mxCell>
        <mxCell id="UXUyvyDJoPG__9SWJVPV-6" value="+ AccountNumber: String" style="text;strokeColor=none;fillColor=none;align=left;verticalAlign=top;spacingLeft=4;spacingRight=4;overflow=hidden;rotatable=0;points=[[0,0.5],[1,0.5]];portConstraint=eastwest;whiteSpace=wrap;html=1;" vertex="1" parent="UXUyvyDJoPG__9SWJVPV-5">
          <mxGeometry y="26" width="164" height="26" as="geometry" />
        </mxCell>
        <mxCell id="UXUyvyDJoPG__9SWJVPV-7" value="+ Amount: double" style="text;strokeColor=none;fillColor=none;align=left;verticalAlign=top;spacingLeft=4;spacingRight=4;overflow=hidden;rotatable=0;points=[[0,0.5],[1,0.5]];portConstraint=eastwest;whiteSpace=wrap;html=1;" vertex="1" parent="UXUyvyDJoPG__9SWJVPV-5">
          <mxGeometry y="52" width="164" height="26" as="geometry" />
        </mxCell>
        <mxCell id="UXUyvyDJoPG__9SWJVPV-9" value="QureyTransaction" style="swimlane;fontStyle=0;childLayout=stackLayout;horizontal=1;startSize=26;fillColor=none;horizontalStack=0;resizeParent=1;resizeParentMax=0;resizeLast=0;collapsible=1;marginBottom=0;whiteSpace=wrap;html=1;flipH=1;" vertex="1" parent="1">
          <mxGeometry x="326" y="607" width="181" height="133" as="geometry" />
        </mxCell>
        <mxCell id="UXUyvyDJoPG__9SWJVPV-10" value="+ AccountNumber: String" style="text;strokeColor=none;fillColor=none;align=left;verticalAlign=top;spacingLeft=4;spacingRight=4;overflow=hidden;rotatable=0;points=[[0,0.5],[1,0.5]];portConstraint=eastwest;whiteSpace=wrap;html=1;" vertex="1" parent="UXUyvyDJoPG__9SWJVPV-9">
          <mxGeometry y="26" width="181" height="26" as="geometry" />
        </mxCell>
        <mxCell id="UXUyvyDJoPG__9SWJVPV-11" value="+ banlance: double" style="text;strokeColor=none;fillColor=none;align=left;verticalAlign=top;spacingLeft=4;spacingRight=4;overflow=hidden;rotatable=0;points=[[0,0.5],[1,0.5]];portConstraint=eastwest;whiteSpace=wrap;html=1;" vertex="1" parent="UXUyvyDJoPG__9SWJVPV-9">
          <mxGeometry y="52" width="181" height="26" as="geometry" />
        </mxCell>
        <mxCell id="UXUyvyDJoPG__9SWJVPV-12" value="+ LastDepositAmount: doub le" style="text;strokeColor=none;fillColor=none;align=left;verticalAlign=top;spacingLeft=4;spacingRight=4;overflow=hidden;rotatable=0;points=[[0,0.5],[1,0.5]];portConstraint=eastwest;whiteSpace=wrap;html=1;" vertex="1" parent="UXUyvyDJoPG__9SWJVPV-9">
          <mxGeometry y="78" width="181" height="55" as="geometry" />
        </mxCell>
        <mxCell id="UXUyvyDJoPG__9SWJVPV-13" value="TransferTransaction" style="swimlane;fontStyle=0;childLayout=stackLayout;horizontal=1;startSize=26;fillColor=none;horizontalStack=0;resizeParent=1;resizeParentMax=0;resizeLast=0;collapsible=1;marginBottom=0;whiteSpace=wrap;html=1;flipH=1;" vertex="1" parent="1">
          <mxGeometry x="284" y="398" width="214" height="104" as="geometry" />
        </mxCell>
        <mxCell id="UXUyvyDJoPG__9SWJVPV-14" value="+ FromAcountNUmber: String" style="text;strokeColor=none;fillColor=none;align=left;verticalAlign=top;spacingLeft=4;spacingRight=4;overflow=hidden;rotatable=0;points=[[0,0.5],[1,0.5]];portConstraint=eastwest;whiteSpace=wrap;html=1;" vertex="1" parent="UXUyvyDJoPG__9SWJVPV-13">
          <mxGeometry y="26" width="214" height="26" as="geometry" />
        </mxCell>
        <mxCell id="UXUyvyDJoPG__9SWJVPV-15" value="+ ToAcountNUmber: String" style="text;strokeColor=none;fillColor=none;align=left;verticalAlign=top;spacingLeft=4;spacingRight=4;overflow=hidden;rotatable=0;points=[[0,0.5],[1,0.5]];portConstraint=eastwest;whiteSpace=wrap;html=1;" vertex="1" parent="UXUyvyDJoPG__9SWJVPV-13">
          <mxGeometry y="52" width="214" height="26" as="geometry" />
        </mxCell>
        <mxCell id="UXUyvyDJoPG__9SWJVPV-16" value="+ Amount: double" style="text;strokeColor=none;fillColor=none;align=left;verticalAlign=top;spacingLeft=4;spacingRight=4;overflow=hidden;rotatable=0;points=[[0,0.5],[1,0.5]];portConstraint=eastwest;whiteSpace=wrap;html=1;" vertex="1" parent="UXUyvyDJoPG__9SWJVPV-13">
          <mxGeometry y="78" width="214" height="26" as="geometry" />
        </mxCell>
        <mxCell id="UXUyvyDJoPG__9SWJVPV-17" value="PINValidationTransaction" style="swimlane;fontStyle=0;childLayout=stackLayout;horizontal=1;startSize=26;fillColor=none;horizontalStack=0;resizeParent=1;resizeParentMax=0;resizeLast=0;collapsible=1;marginBottom=0;whiteSpace=wrap;html=1;flipH=1;" vertex="1" parent="1">
          <mxGeometry x="642" y="394" width="168" height="78" as="geometry" />
        </mxCell>
        <mxCell id="UXUyvyDJoPG__9SWJVPV-18" value="+ StartTime: int64" style="text;strokeColor=none;fillColor=none;align=left;verticalAlign=top;spacingLeft=4;spacingRight=4;overflow=hidden;rotatable=0;points=[[0,0.5],[1,0.5]];portConstraint=eastwest;whiteSpace=wrap;html=1;" vertex="1" parent="UXUyvyDJoPG__9SWJVPV-17">
          <mxGeometry y="26" width="168" height="26" as="geometry" />
        </mxCell>
        <mxCell id="UXUyvyDJoPG__9SWJVPV-20" value="+ ExpireTime: int64" style="text;strokeColor=none;fillColor=none;align=left;verticalAlign=top;spacingLeft=4;spacingRight=4;overflow=hidden;rotatable=0;points=[[0,0.5],[1,0.5]];portConstraint=eastwest;whiteSpace=wrap;html=1;" vertex="1" parent="UXUyvyDJoPG__9SWJVPV-17">
          <mxGeometry y="52" width="168" height="26" as="geometry" />
        </mxCell>
        <mxCell id="UXUyvyDJoPG__9SWJVPV-8" value="+ banlance: double" style="text;strokeColor=none;fillColor=none;align=left;verticalAlign=top;spacingLeft=4;spacingRight=4;overflow=hidden;rotatable=0;points=[[0,0.5],[1,0.5]];portConstraint=eastwest;whiteSpace=wrap;html=1;flipH=1;" vertex="1" parent="1">
          <mxGeometry x="37" y="440" width="164" height="26" as="geometry" />
        </mxCell>
      </root>
    </mxGraphModel>
  </diagram>
</mxfile>
